<?xml version="1.0" encoding="utf-8"?>
<!-- Generator: Adobe Illustrator 24.2.3, SVG Export Plug-In . SVG Version: 6.00 Build 0)  -->
<svg version="1.1" id="Layer_1" xmlns="http://www.w3.org/2000/svg" xmlns:xlink="http://www.w3.org/1999/xlink" x="0px" y="0px"
	 viewBox="0 0 684.2 262" style="enable-background:new 0 0 684.2 262;" xml:space="preserve">
<style type="text/css">
	.st0{display:none;}
	.st1{display:inline;}
	.st2{fill:#000000;}
</style>
<g id="Layer_1_1_" class="st0">
	<g class="st1">
		<path d="M296.7,28V6.9H17.4v24.8h160.1L6.7,234v21.1H300v-24.8H125.9L296.7,28z M41.8,230.3L209.4,31.7h52.1L93.9,230.3H41.8z"/>
		<path d="M439.8,151c-9.5,0-16.8,1.2-21.4,2.4l1.4-44.3h68.8V89.6h-91.1l-1.4,87c8.8-3.8,17.8-6.2,32-6.2
			c22.3,0,40.1,11.6,40.1,35.3c0,21.1-19,32.7-38.7,32.7c-14.5,0-24.2-2.6-34.4-8.3l-0.7,22.3c5.9,2.1,17.6,5.5,35.6,5.5
			c34.4,0,63.3-19.4,63.3-55.7C493.4,172.8,469,151,439.8,151z"/>
		<path d="M573.1,86.8c-45.8,0-56.2,49.3-56.2,85.6s10.4,85.6,56.2,85.6s56.2-49.3,56.2-85.6S618.9,86.8,573.1,86.8z M573.1,238.5
			c-28.5,0-31.1-45.5-31.1-66.2c0-20.9,3.8-66.2,31.1-66.2s31.1,45.3,31.1,66.2C604.2,193,601.6,238.5,573.1,238.5z"/>
	</g>
	<g class="st1">
		<path d="M654.4,92.8v2.7h-7.6v19.9h-3.1V95.5h-7.6v-2.7C636.1,92.8,654.4,92.8,654.4,92.8z"/>
		<path d="M657.1,92.8h4.4l6.5,19.1l6.4-19.1h4.4v22.6h-2.9v-13.3c0-0.5,0-1.2,0-2.3c0-1.1,0-2.2,0-3.4l-6.4,19h-3l-6.5-19v0.7
			c0,0.6,0,1.4,0,2.5s0.1,2,0.1,2.5v13.3h-2.9L657.1,92.8L657.1,92.8z"/>
	</g>
</g>
<g id="Layer_2_1_" class="st0">
	<g class="st1">
		<path d="M184.9,230.3L355.6,28V6.9H76.4v24.8h160.1L65.7,234v21.1h293.2v-24.8H184.9z M320.6,31.7L152.9,230.3h-52.2L268.4,31.7
			H320.6z"/>
		<polygon points="550.6,109.1 489.4,255.1 463.3,255.1 526.4,109.1 445.8,109.1 445.8,89.6 550.6,89.6 		"/>
		<g>
			<path d="M591.2,88.7v2.7h-7.6v19.9h-3.1V91.4h-7.6v-2.7C572.9,88.7,591.2,88.7,591.2,88.7z"/>
			<path d="M593.9,88.7h4.4l6.5,19.1l6.4-19.1h4.4v22.6h-2.9V98c0-0.5,0-1.2,0-2.3c0-1.1,0-2.2,0-3.4l-6.4,19h-3l-6.5-19V93
				c0,0.6,0,1.4,0,2.5s0.1,2,0.1,2.5v13.3H594L593.9,88.7L593.9,88.7z"/>
		</g>
	</g>
</g>
<g id="Layer_3">
	<g>
		<path class="st2" d="M185.7,229L356.2,27V5.9H77.3v24.8h159.9l-170.5,202v21.1h292.8V229H185.7z M321.2,30.7L153.8,229h-52.1
			L269.1,30.7H321.2z"/>
		<g>
			<path class="st2" d="M591.4,87.6v2.7h-7.6v19.9h-3.1V90.3h-7.6v-2.7C573.1,87.6,591.4,87.6,591.4,87.6z"/>
			<path class="st2" d="M594.1,87.6h4.4l6.5,19.1l6.4-19.1h4.3v22.6h-2.9V96.8c0-0.5,0-1.2,0-2.3c0-1.1,0-2.2,0-3.4l-6.4,19h-3
				l-6.5-19v0.7c0,0.6,0,1.4,0,2.5s0.1,2,0.1,2.5v13.3h-2.9L594.1,87.6L594.1,87.6z"/>
		</g>
	</g>
</g>
<path class="st2" d="M498.7,147.5c-9.3,0-16.6,1.3-21.3,2.7l1.3-45.2h69.1V85h-91.7l-1.3,88.4c8.6-4,17.9-6,31.9-6
	c22.6,0,40.6,12,40.6,35.9c0,21.3-19.3,33.2-38.6,33.2c-14.6,0-24.6-2.7-34.6-8.6l-0.7,22.6c6,2,17.9,5.3,35.9,5.3
	c34.6,0,63.8-19.9,63.8-56.5C552.6,169.4,528,147.5,498.7,147.5z"/>
</svg>
