<?xml version="1.0" encoding="utf-8"?>
<!-- Generator: Adobe Illustrator 27.2.0, SVG Export Plug-In . SVG Version: 6.00 Build 0)  -->
<svg version="1.1" id="logo" xmlns="http://www.w3.org/2000/svg" xmlns:xlink="http://www.w3.org/1999/xlink" x="0px" y="0px"
	 viewBox="0 0 150 57" style="enable-background:new 0 0 150 57;" xml:space="preserve">
<style type="text/css">
	.st0{fill:#FFFFFF;}
</style>
<g>
	<path class="st0" d="M45.26,50.98l38.75-45.9V0.28H20.64v5.63h36.33L18.22,51.82v4.79h66.54v-5.63H45.26z M76.06,5.91L38.01,50.98
		H26.18L64.22,5.91H76.06z"/>
	<path class="st0" d="M103.02,45.48c0-5.35,3.69-8.92,8.52-10.59v-0.12c-5.87-2.07-7.54-6.22-7.54-10.02
		c0-5.12,4.84-9.61,13.02-9.61c7.95,0,12.44,4.6,12.44,9.04c0,4.49-1.84,7.48-7.26,10.36c4.84,1.67,8.47,5.3,8.47,10.65
		c0,8.06-6.39,11.51-13.94,11.51C109.93,56.7,103.02,52.91,103.02,45.48 M115.8,36.86c-3.28,2.3-7.08,3.56-7.08,8.28
		c0,4.43,4.49,7.16,8.52,7.16c3.86,0,7.6-2.61,7.71-6.64C125.13,40.01,120.12,38.93,115.8,36.86 M118.14,32.98
		c4.72-3.63,5.61-5.29,5.61-8.05c0-3.8-3.26-5.37-7.2-5.37c-3.76,0-7.17,2.21-7.17,6.01C109.38,28.33,112.73,30.34,118.14,32.98"/>
</g>
</svg>
